<?xml version="1.0" standalone="no"?>
<!DOCTYPE svg PUBLIC "-//W3C//DTD SVG 20010904//EN"
 "http://www.w3.org/TR/2001/REC-SVG-20010904/DTD/svg10.dtd">
<svg version="1.0" xmlns="http://www.w3.org/2000/svg"
 width="200.000000pt" height="200.000000pt" viewBox="0 0 200.000000 200.000000"
 preserveAspectRatio="xMidYMid meet">
<metadata>
Created by potrace 1.14, written by Peter Selinger 2001-2017
</metadata>
<g transform="translate(0.000000,200.000000) scale(0.100000,-0.100000)"
fill="#000000" stroke="none">
<path d="M780 1876 l0 -84 -52 -17 c-29 -10 -87 -35 -128 -57 -189 -100 -329
-265 -394 -465 -19 -58 -10 -54 -134 -55 l-62 0 0 -203 0 -203 90 2 c49 1 90
-2 90 -7 0 -20 56 -147 91 -207 96 -163 268 -301 443 -356 l56 -18 0 -83 0
-83 200 0 c153 0 200 3 201 13 1 6 1 44 2 83 l0 72 41 12 c114 34 266 129 347
218 81 89 159 211 136 213 -41 5 -74 5 -84 2 -6 -3 -28 -30 -49 -61 -70 -106
-197 -211 -314 -259 -30 -12 -60 -23 -66 -23 -7 0 -10 24 -10 65 1 38 -3 65
-9 66 -13 1 -354 1 -377 0 -15 -1 -18 -11 -18 -70 l0 -70 -60 24 c-182 71
-334 220 -407 397 -12 32 -23 61 -23 65 0 5 27 8 60 7 37 0 60 3 61 10 1 12 0
351 0 377 -1 13 -11 16 -52 15 -74 -2 -77 3 -49 71 49 120 142 239 247 316 49
36 190 107 212 107 6 0 11 -30 13 -67 l3 -67 180 0 c99 -1 189 0 200 2 19 3
21 10 19 68 -1 36 3 64 8 64 6 0 47 -17 92 -38 122 -58 229 -151 298 -259 l33
-52 52 1 52 1 -16 31 c-92 180 -261 325 -460 396 l-62 22 1 67 c0 36 0 74 -1
84 -1 16 -18 17 -201 17 l-200 0 0 -84z m315 -116 c0 -103 -1 -110 -20 -111
-11 -1 -60 -2 -110 -2 l-90 -1 -3 112 -3 112 113 0 113 0 0 -110z m-770 -765
l0 -110 -115 0 c-63 0 -114 3 -112 8 1 4 2 54 2 112 l0 106 112 -3 113 -3 0
-110z m760 -644 c8 -1 13 -147 6 -208 -1 -10 -30 -13 -111 -13 l-110 0 0 109
c0 96 2 110 18 113 13 3 153 2 197 -1z"/>
<path d="M1460 1162 c-10 -4 -15 -324 -5 -334 3 -2 17 -3 33 0 27 4 27 4 26
73 l-2 69 59 0 c56 0 59 1 59 25 0 22 -4 24 -57 27 l-57 3 -4 43 c-4 47 -11
43 88 44 66 0 71 3 61 30 -7 20 -15 22 -99 22 -51 1 -97 0 -102 -2z"/>
<path d="M1752 1160 c-4 -3 -7 -14 -7 -25 0 -17 7 -20 43 -20 31 1 42 -3 43
-15 1 -8 2 -72 3 -142 0 -71 4 -128 9 -128 61 0 56 -7 56 83 0 45 0 109 0 142
l1 60 42 0 c37 0 43 3 46 23 2 12 0 22 -5 23 -35 4 -226 3 -231 -1z"/>
</g>
</svg>
